<svg xmlns="http://www.w3.org/2000/svg" viewBox="0 0 512 512">
  <defs>
    <linearGradient id="g" x1="0%" y1="0%" x2="100%" y2="100%">
      <stop offset="0%" stop-color="#1a1b26"/>
      <stop offset="100%" stop-color="#24283b"/>
    </linearGradient>
    <linearGradient id="t" x1="0%" y1="0%" x2="100%" y2="100%">
      <stop offset="0%" stop-color="#7aa2f7"/>
      <stop offset="100%" stop-color="#bb9af7"/>
    </linearGradient>
  </defs>
  <!-- Full bleed for maskable (host clips to circle/shape) -->
  <rect width="512" height="512" fill="url(#g)"/>
  <!-- Cloud + ACE in 80% safe zone -->
  <path d="M330 210c0-38-31-68-68-68-27 0-51 16-63 39-6-3-13-4-21-4-30 0-54 24-54 54 0 30 24 54 54 54h152c25 0 45-20 45-45 0-24-18-43-42-46-1 0-2-1-3 0z"
    fill="none" stroke="url(#t)" stroke-width="16" stroke-linecap="round" stroke-linejoin="round"/>
  <text
    x="50%" y="78%"
    font-family="-apple-system, BlinkMacSystemFont, 'JetBrains Mono', monospace"
    font-weight="700"
    font-size="82"
    fill="url(#t)"
    text-anchor="middle"
    dominant-baseline="middle"
    letter-spacing="4"
  >ACE</text>
</svg>
