<svg xmlns="http://www.w3.org/2000/svg" viewBox="0 0 512 512">
  <defs>
    <linearGradient id="g" x1="0%" y1="0%" x2="100%" y2="100%">
      <stop offset="0%" stop-color="#1a1b26"/>
      <stop offset="100%" stop-color="#24283b"/>
    </linearGradient>
    <linearGradient id="t" x1="0%" y1="0%" x2="100%" y2="100%">
      <stop offset="0%" stop-color="#7aa2f7"/>
      <stop offset="100%" stop-color="#bb9af7"/>
    </linearGradient>
  </defs>
  <rect width="512" height="512" rx="110" fill="url(#g)"/>
  <!-- Cloud shape -->
  <path d="M340 220c0-42-34-76-76-76-30 0-56 17-69 42-7-3-15-5-23-5-33 0-60 27-60 60 0 33 27 60 60 60h168c28 0 50-22 50-50 0-26-20-47-46-50-2-1-3-1-4-1z"
    fill="none" stroke="url(#t)" stroke-width="18" stroke-linecap="round" stroke-linejoin="round"/>
  <!-- ACE text -->
  <text
    x="50%" y="78%"
    font-family="-apple-system, BlinkMacSystemFont, 'JetBrains Mono', monospace"
    font-weight="700"
    font-size="90"
    fill="url(#t)"
    text-anchor="middle"
    dominant-baseline="middle"
    letter-spacing="4"
  >ACE</text>
</svg>
